<svg version="1.1" id="1711681305654-3641975_Layer_1" xmlns="http://www.w3.org/2000/svg" x="0" y="0" width="480" height="295" viewBox="0 0 480 295" xml:space="preserve"><g class="nc-icon-wrapper"><path fill-rule="evenodd" clip-rule="evenodd" fill="currentColor" d="M358.4,24.2v7.8h-2.6c-0.4,0-0.7,0.3-0.7,0.7	c0,0.4,0.3,0.7,0.7,0.7h6.6c0.4,0,0.7-0.3,0.7-0.7c0-0.4-0.3-0.7-0.7-0.7h-2.5v-7.8l8.3-8.4c0.3-0.3,0.3-0.7,0-1	c-0.3-0.3-0.7-0.3-1,0l-2.1,2.1h-11.6l-2-2.2c-0.3-0.3-0.7-0.3-1-0.1c-0.3,0.3-0.3,0.7-0.1,1L358.4,24.2z M363.6,18.4	c0,0-4.3,4.5-4.4,4.6l-4.4-4.6H363.6z"></path><path fill-rule="evenodd" clip-rule="evenodd" fill="currentColor" d="M157.8,24.7h20c0.6,0,1-0.4,1-1c0-0.6-0.4-1-1-1h-20	c-0.6,0-1,0.4-1,1C156.8,24.2,157.2,24.7,157.8,24.7z"></path><path fill-rule="evenodd" clip-rule="evenodd" fill="currentColor" d="M16.2,126.3c0.1,0.1,0.3,0.2,0.5,0.2s0.4-0.1,0.5-0.2l6.5-6.5	l6.5,6.5c0.1,0.1,0.3,0.2,0.5,0.2c0.2,0,0.4-0.1,0.5-0.2c0.3-0.3,0.3-0.8,0-1.1l-6.5-6.5l6.5-6.5c0.3-0.3,0.3-0.8,0-1.1	c-0.3-0.3-0.8-0.3-1.1,0l-6.5,6.5l-6.5-6.5c-0.3-0.3-0.8-0.3-1.1,0c-0.3,0.3-0.3,0.8,0,1.1l6.5,6.5l-6.5,6.5	C15.9,125.5,15.9,126,16.2,126.3z"></path><path fill-rule="evenodd" clip-rule="evenodd" fill="currentColor" d="M61.8,24.4H71v9.2c0,0.4,0.3,0.8,0.8,0.8c0.4,0,0.8-0.3,0.8-0.8	v-9.2h9.2c0.4,0,0.8-0.3,0.8-0.8c0-0.4-0.3-0.8-0.8-0.8h-9.2v-9.2c0-0.4-0.3-0.8-0.8-0.8c-0.4,0-0.8,0.3-0.8,0.8v9.2h-9.3	c-0.4,0-0.8,0.3-0.8,0.8C61,24.1,61.4,24.4,61.8,24.4z"></path><path fill-rule="evenodd" clip-rule="evenodd" fill="currentColor" d="M13.8,24.4H22l-5.8,5.8c-0.3,0.3-0.3,0.8,0,1.1	c0.1,0.1,0.3,0.2,0.5,0.2s0.4-0.1,0.5-0.2l5.8-5.8v8.2c0,0.4,0.3,0.8,0.8,0.8c0.4,0,0.8-0.3,0.8-0.8v-8.2l5.8,5.8	c0.1,0.1,0.3,0.2,0.5,0.2c0.2,0,0.4-0.1,0.5-0.2c0.3-0.3,0.3-0.8,0-1.1l-5.8-5.8h8.2c0.4,0,0.8-0.3,0.8-0.8c0-0.4-0.3-0.8-0.8-0.8	h-8.2l5.8-5.8c0.3-0.3,0.3-0.8,0-1.1c-0.3-0.3-0.8-0.3-1.1,0l-5.8,5.8v-8.2c0-0.4-0.3-0.8-0.8-0.8c-0.4,0-0.8,0.3-0.8,0.8v8.2	l-5.8-5.8c-0.3-0.3-0.8-0.3-1.1,0c-0.3,0.3-0.3,0.8,0,1.1l5.8,5.8h-8.2c-0.4,0-0.8,0.3-0.8,0.8C13,24.1,13.4,24.4,13.8,24.4z"></path><path fill-rule="evenodd" clip-rule="evenodd" fill="currentColor" d="M120.4,33.4c4.3,0,8-2.8,9.3-6.7h-1.8c-1.2,2.9-4.1,5-7.5,5	c-3.5,0-6.4-2.2-7.6-5.3h3.5c0.4,0,0.8-0.3,0.8-0.8c0-0.4-0.3-0.8-0.8-0.8h-3.8c-0.1-0.4-0.1-0.8-0.1-1.3c0-0.2,0-0.4,0-0.7h3.9	c0.4,0,0.8-0.3,0.8-0.8c0-0.4-0.3-0.8-0.8-0.8h-3.7c0.9-3.4,4.1-5.9,7.8-5.9c3.5,0,6.5,2.3,7.6,5.4h1.8c-1.2-4.1-4.9-7.1-9.4-7.1	c-4.7,0-8.5,3.3-9.5,7.6h-2.8c-0.4,0-0.7,0.3-0.7,0.8c0,0.4,0.3,0.8,0.7,0.8h2.6c0,0.2,0,0.4,0,0.7c0,0.4,0,0.9,0.1,1.3h-2.7	c-0.4,0-0.7,0.3-0.7,0.8c0,0.4,0.3,0.8,0.7,0.8h3C112.2,30.4,116,33.4,120.4,33.4z"></path><path fill-rule="evenodd" clip-rule="evenodd" fill="currentColor" d="M224.8,22.1c-0.4,0-0.8,0.1-1.1,0.2c-0.4-4.1-3.6-7.4-7.6-7.4	c-3.1,0-5.9,2.1-7,5.1c-0.3-0.1-0.6-0.1-0.9-0.1c-3,0-5.4,2.6-5.4,5.8c0,3.2,2.4,5.8,5.4,5.8h16.7c2.4,0,4.4-2.1,4.4-4.7	C229.2,24.2,227.2,22.1,224.8,22.1z M224.8,30h-16.7c-2.2,0-3.9-1.9-3.9-4.3s1.8-4.3,3.9-4.3c0.4,0,0.7,0.1,1.2,0.2	c0.2,0.1,0.4,0.1,0.6,0c0.2-0.1,0.3-0.3,0.4-0.5c0.8-2.8,3.2-4.7,5.8-4.7c3.4,0,6.1,3,6.1,6.6c0,0.1,0,0.1,0,0.2l0,0.1	c0,0.3,0.1,0.5,0.4,0.7c0.2,0.1,0.5,0.1,0.8,0c0.5-0.3,1-0.4,1.5-0.4c1.6,0,2.9,1.4,2.9,3.2S226.4,30,224.8,30z"></path><path fill-rule="evenodd" clip-rule="evenodd" fill="currentColor" d="M304.2,32.7c0.1,0,0.1,0,0.2,0l5.5-1.6c0.2,0,0.3-0.2,0.4-0.3	l10.4-10.4c0.3-0.3,0.3-0.8,0-1.1l-3.9-3.9c-0.3-0.3-0.8-0.3-1.1,0l-10.4,10.4c-0.1,0.1-0.3,0.2-0.3,0.4l-1.6,5.5	c-0.1,0.3,0,0.5,0.2,0.7C303.8,32.6,304,32.7,304.2,32.7z M305.2,30.9l0.9-3l2.1,2.1L305.2,30.9z M316.3,17l2.8,2.8l-9.4,9.4	l-2.8-2.8L316.3,17z"></path><path fill-rule="evenodd" clip-rule="evenodd" fill="currentColor" d="M399.4,34.3c0.2,0,0.5,0,0.7-0.1c0.8-0.1,1.6-0.5,2.1-1.1	c0.5-0.6,0.8-1.3,0.7-2c0,0,0,0,0,0V19.5l11.4-2.8l0,9.9c-0.6-0.3-1.4-0.4-2.3-0.3c-1.8,0.3-3.1,1.8-2.8,3.3	c0.2,1.3,1.5,2.2,3.1,2.2c0.2,0,0.5,0,0.7-0.1c1.8-0.3,3-1.7,2.8-3.1c0,0,0,0,0,0l0-12.8c0-0.2-0.1-0.4-0.3-0.6	c-0.2-0.1-0.4-0.2-0.6-0.1L402,18.1c-0.3,0.1-0.6,0.4-0.6,0.7v10.2c-0.6-0.3-1.4-0.4-2.3-0.3c-0.8,0.1-1.6,0.5-2.1,1.1	c-0.6,0.6-0.8,1.4-0.7,2.2C396.5,33.4,397.8,34.3,399.4,34.3z M412.7,30.1c-1,0.2-1.9-0.3-2-0.9c-0.1-0.7,0.6-1.4,1.6-1.5	c0.1,0,0.3,0,0.4,0c0.8,0,1.5,0.4,1.6,1C414.4,29.3,413.7,30,412.7,30.1z M398.1,30.9c0.3-0.3,0.8-0.6,1.3-0.7c0.1,0,0.3,0,0.4,0	c0.8,0,1.5,0.4,1.6,1c0.1,0.4-0.2,0.7-0.3,0.9c-0.3,0.3-0.8,0.6-1.3,0.7c-0.1,0-0.3,0-0.4,0c-0.8,0-1.5-0.4-1.6-1	C397.7,31.4,398,31.1,398.1,30.9z"></path><path fill-rule="evenodd" clip-rule="evenodd" fill="currentColor" d="M447.2,33.2c0.2,0,0.4-0.1,0.5-0.2l6.1-6.1c1.2,1,2.7,1.5,4.3,1.5	c1.8,0,3.6-0.7,4.9-2c2.7-2.7,2.7-7,0-9.7c-1.3-1.3-3-2-4.9-2c-1.8,0-3.6,0.7-4.9,2c-1.3,1.3-2,3-2,4.9c0,1.6,0.5,3.1,1.5,4.3	l-6.1,6.1c-0.3,0.3-0.3,0.8,0,1.1C446.8,33.2,447,33.2,447.2,33.2z M454.3,17.8c1-1,2.4-1.6,3.8-1.6s2.8,0.6,3.8,1.6	c2.1,2.1,2.1,5.5,0,7.6c-1,1-2.4,1.6-3.8,1.6c-1.4,0-2.8-0.6-3.8-1.6c-1-1-1.6-2.4-1.6-3.8C452.7,20.2,453.3,18.8,454.3,17.8z"></path><path fill-rule="evenodd" clip-rule="evenodd" fill="currentColor" d="M80.8,64.4c-1.2-1.2-2.7-1.8-4.3-1.8c-1.6,0-2.9,0.6-4.2,1.8l0,0	c0,0,0,0,0,0c-1.2-1.2-2.5-1.8-4.1-1.8c-1.6,0-3.2,0.6-4.3,1.8c-1.2,1.2-1.8,2.7-1.8,4.3c0,1.6,0.6,3.2,1.8,4.3l7.1,7.2	c0.4,0.4,0.9,0.6,1.4,0.6c0.5,0,1-0.2,1.4-0.6l7.1-7.1c1.1-1.2,1.8-2.7,1.8-4.3C82.6,67.1,81.9,65.6,80.8,64.4z"></path><path fill-rule="evenodd" clip-rule="evenodd" fill="currentColor" d="M27.5,62.6c-1.6,0-2.9,0.6-4.2,1.8l0,0c0,0,0,0,0,0	c-1.2-1.2-2.5-1.8-4.1-1.8c-1.6,0-3.2,0.6-4.3,1.8c-1.2,1.2-1.8,2.7-1.8,4.3c0,1.6,0.6,3.2,1.8,4.3l7.1,7.2c0.4,0.4,0.9,0.6,1.4,0.6	c0.5,0,1-0.2,1.4-0.6l7.1-7.1c1.1-1.2,1.8-2.7,1.8-4.3c0-1.6-0.6-3.2-1.8-4.3C30.6,63.3,29.1,62.6,27.5,62.6z M30.7,72l-7.1,7.2	c-0.2,0.2-0.5,0.2-0.6,0L15.9,72c-0.9-0.9-1.3-2-1.3-3.2c0-1.2,0.5-2.4,1.3-3.2c0.9-0.9,2-1.3,3.2-1.3c1.2,0,2.1,0.4,3,1.3l0.6,0.7	c0.1,0.2,0.4,0.3,0.6,0.3c0.2,0,0.4-0.1,0.6-0.3l0.5-0.7c0.9-0.9,1.9-1.3,3.1-1.3c1.2,0,2.4,0.5,3.2,1.3c0.9,0.9,1.3,2,1.3,3.2	C32.1,69.9,31.6,71.1,30.7,72z"></path><path fill-rule="evenodd" clip-rule="evenodd" fill="currentColor" d="M175.8,68.2h-5.5l-2.8-6.2c-0.2-0.5-1.1-0.5-1.4,0l-2.8,6.2h-5.5	c-0.3,0-0.6,0.2-0.7,0.5c-0.1,0.3,0,0.6,0.2,0.8l4.1,3.8l-1.8,6.6c-0.1,0.3,0,0.6,0.3,0.8c0.2,0.2,0.6,0.2,0.8,0.1l6.1-3.5l6.1,3.5	c0.1,0.1,0.2,0.1,0.4,0.1c0.2,0,0.3-0.1,0.5-0.2c0.2-0.2,0.3-0.5,0.3-0.8l-1.8-6.6l4.1-3.8c0.2-0.2,0.3-0.5,0.2-0.8	C176.4,68.4,176.1,68.2,175.8,68.2z" data-color="color-2"></path><path fill-rule="evenodd" clip-rule="evenodd" fill="currentColor" d="M129.5,68.7c-0.1-0.3-0.4-0.5-0.7-0.5h-5.5l-2.8-6.2	c-0.2-0.5-1.1-0.5-1.4,0l-2.8,6.2h-5.5c-0.3,0-0.6,0.2-0.7,0.5c-0.1,0.3,0,0.6,0.2,0.8l4.1,3.8l-1.8,6.6c-0.1,0.3,0,0.6,0.3,0.8	c0.2,0.2,0.6,0.2,0.8,0.1l6.1-3.5l6.1,3.5c0.1,0.1,0.2,0.1,0.4,0.1c0.2,0,0.3-0.1,0.5-0.2c0.2-0.2,0.3-0.5,0.3-0.8l-1.8-6.6l4.1-3.8	C129.5,69.3,129.6,68.9,129.5,68.7z M123.9,72.5c-0.2,0.2-0.3,0.5-0.2,0.7l1.4,5.3l-4.9-2.8c-0.1-0.1-0.2-0.1-0.4-0.1	c-0.1,0-0.3,0-0.4,0.1l-4.9,2.8l1.4-5.3c0.1-0.3,0-0.6-0.2-0.7l-3-2.8h4.1c0.3,0,0.6-0.2,0.7-0.4l2.3-5.1l2.3,5.1	c0.1,0.3,0.4,0.4,0.7,0.4h4.1L123.9,72.5z" data-color="color-2"></path><path fill-rule="evenodd" clip-rule="evenodd" fill="currentColor" d="M219.4,65.1c0-2-1.6-3.7-3.7-3.7c-2,0-3.7,1.6-3.7,3.7 c0,2,1.6,3.7,3.7,3.7C217.8,68.8,219.4,67.2,219.4,65.1z M213.6,65.1c0-1.2,1-2.2,2.2-2.2c1.2,0,2.2,1,2.2,2.2c0,1.2-1,2.2-2.2,2.2 C214.6,67.3,213.6,66.3,213.6,65.1z"></path><path fill-rule="evenodd" clip-rule="evenodd" fill="currentColor" d="M210.2,75.3v4.9h1.5v-4.9c0-2.3,1.9-4.2,4.3-4.2s4.3,1.9,4.3,4.2 v4.9h1.5v-4.9c0-3.1-2.6-5.7-5.8-5.7C212.8,69.6,210.2,72.2,210.2,75.3z"></path><path fill-rule="evenodd" clip-rule="evenodd" fill="currentColor" d="M254.6,32.1h18c0.4,0,0.8-0.3,0.8-0.7V15.7c0,0,0-0.1,0-0.1	c0-0.1,0-0.1,0-0.2c0-0.1-0.1-0.1-0.1-0.1c0,0,0-0.1-0.1-0.1c0,0,0,0,0,0c0,0-0.1-0.1-0.1-0.1c0,0-0.1-0.1-0.1-0.1c0,0-0.1,0-0.1,0	c-0.1,0-0.1,0-0.2,0c0,0,0,0,0,0h-18c0,0,0,0,0,0c-0.1,0-0.1,0-0.2,0c0,0-0.1,0-0.1,0c0,0-0.1,0-0.1,0.1c0,0-0.1,0.1-0.1,0.1	c0,0,0,0,0,0c0,0,0,0.1-0.1,0.1c0,0-0.1,0.1-0.1,0.1c0,0.1,0,0.1,0,0.2c0,0,0,0.1,0,0.1v15.7C253.8,31.8,254.1,32.1,254.6,32.1z M255.3,30.6V17.3l7.8,6.7c0.1,0.1,0.3,0.2,0.5,0.2c0.2,0,0.4-0.1,0.5-0.2l7.8-6.7v13.3H255.3z M256.6,16.4h14l-7,6.1L256.6,16.4z"></path><path fill-rule="evenodd" clip-rule="evenodd" fill="currentColor" d="M399.7,62.9c-0.4,0-0.8,0.3-0.8,0.8v15.7c0,0.4,0.3,0.8,0.8,0.8	h15.7c0.4,0,0.8-0.3,0.8-0.8V63.7c0-0.4-0.3-0.8-0.8-0.8H399.7z M400.5,69.5h3.3v4.1h-3.3V69.5z M405.3,69.5h9.3v4.1h-9.3V69.5z M414.6,68h-9.3v-3.5h9.3V68z M403.8,64.4V68h-3.3v-3.5H403.8z M400.5,75.1h3.3v3.5h-3.3V75.1z M405.3,78.6v-3.5h9.3v3.5H405.3z"></path><path fill-rule="evenodd" clip-rule="evenodd" fill="currentColor" d="M367.4,62.9h-15.7c-0.4,0-0.8,0.3-0.8,0.8v15.7	c0,0.4,0.3,0.8,0.8,0.8h15.7c0.4,0,0.8-0.3,0.8-0.8V63.7C368.1,63.3,367.8,62.9,367.4,62.9z M357.3,73.6v-4.1h4.5v4.1H357.3z M361.8,75.1v3.5h-4.5v-3.5H361.8z M352.5,69.5h3.3v4.1h-3.3V69.5z M357.3,68v-3.5h4.5V68H357.3z M363.3,69.5h3.3v4.1h-3.3V69.5z M366.6,68h-3.3v-3.5h3.3V68z M355.8,64.4V68h-3.3v-3.5H355.8z M352.5,75.1h3.3v3.5h-3.3V75.1z M363.3,78.6v-3.5h3.3v3.5H363.3z"></path><path fill-rule="evenodd" clip-rule="evenodd" fill="currentColor" d="M255.7,62.9c-0.4,0-0.8,0.3-0.8,0.8v15.7c0,0.4,0.3,0.8,0.8,0.8	h15.7c0.4,0,0.8-0.3,0.8-0.8V63.7c0-0.4-0.3-0.8-0.8-0.8H255.7z M269.3,70.8h1.3v1.5h-1.3V70.8z M270.6,69.3h-1.3v-1.5h1.3V69.3z M267.8,70.8h-8.7v-6.3h8.7V70.8z M256.5,70.8h1.1v1.5h-1.1V70.8z M257.6,69.3h-1.1v-1.5h1.1V69.3z M256.5,73.8h1.1v1.5h-1.1V73.8z M259.1,72.3h8.7v6.3h-8.7V72.3z M269.3,73.8h1.3v1.5h-1.3V73.8z M270.6,66.3h-1.3v-1.8h1.3V66.3z M257.6,64.4v1.8h-1.1v-1.8H257.6z M256.5,76.8h1.1v1.8h-1.1V76.8z M269.3,78.6v-1.8h1.3v1.8H269.3z"></path><path fill-rule="evenodd" clip-rule="evenodd" fill="currentColor" d="M303.7,80.1h15.7c0.4,0,0.8-0.3,0.8-0.8V63.7	c0-0.4-0.3-0.8-0.8-0.8h-15.7c-0.4,0-0.8,0.3-0.8,0.8v15.7C303,79.8,303.3,80.1,303.7,80.1z M304.5,72.3h6.3v6.3h-6.3V72.3z M312.3,78.6v-6.3h6.3v6.3H312.3z M318.6,70.8h-6.3v-6.3h6.3V70.8z M310.8,64.4v6.3h-6.3v-6.3H310.8z"></path><path fill-rule="evenodd" clip-rule="evenodd" fill="currentColor" d="M462.8,64.7l-10.7,12l-3.7-5.2c-0.2-0.3-0.7-0.4-1-0.2	c-0.3,0.2-0.4,0.7-0.2,1l4.3,6c0.1,0.2,0.3,0.3,0.6,0.3c0,0,0,0,0,0c0.2,0,0.4-0.1,0.6-0.2L464,65.7c0.3-0.3,0.2-0.8-0.1-1.1	C463.6,64.4,463.1,64.4,462.8,64.7z"></path><path fill-rule="evenodd" clip-rule="evenodd" fill="currentColor" d="M459.1,252.7l-7,7.8l-2.4-3.4c-0.2-0.2-0.5-0.3-0.7-0.1	c-0.2,0.2-0.3,0.5-0.1,0.7l2.8,3.9c0.1,0.1,0.2,0.2,0.4,0.2c0,0,0,0,0,0c0.1,0,0.3-0.1,0.4-0.2l7.4-8.3c0.2-0.2,0.2-0.5,0-0.7	C459.6,252.5,459.3,252.5,459.1,252.7z"></path><path fill-rule="evenodd" clip-rule="evenodd" fill="currentColor" d="M127.6,111.4c-1.3-1.3-3-2-4.9-2c-1.8,0-3.6,0.7-4.9,2 c-1.3,1.3-2,3-2,4.9c0,1.6,0.5,3.1,1.5,4.3l-6.1,6.1c-0.3,0.3-0.3,0.8,0,1.1c0.1,0.1,0.3,0.2,0.5,0.2s0.4-0.1,0.5-0.2l6.1-6.1 c1.2,1,2.7,1.5,4.3,1.5c1.8,0,3.6-0.7,4.9-2C130.2,118.5,130.2,114.1,127.6,111.4z M126.5,120.1c-1,1-2.4,1.6-3.8,1.6 c-1.4,0-2.8-0.6-3.8-1.6c-1-1-1.6-2.4-1.6-3.8c0-1.4,0.6-2.8,1.6-3.8c1-1,2.4-1.6,3.8-1.6c1.4,0,2.8,0.6,3.8,1.6 C128.6,114.6,128.6,118,126.5,120.1z"></path><path fill-rule="evenodd" clip-rule="evenodd" fill="currentColor" d="M125.3,115.7h-5.1c-0.4,0-0.8,0.3-0.8,0.8c0,0.4,0.3,0.8,0.8,0.8 h5.1c0.4,0,0.8-0.3,0.8-0.8C126.1,116,125.8,115.7,125.3,115.7z"></path><path fill-rule="evenodd" clip-rule="evenodd" fill="currentColor" d="M63.3,127.7c0.1,0.1,0.3,0.2,0.5,0.2c0.2,0,0.4-0.1,0.5-0.2 l6.1-6.1c1.2,1,2.7,1.5,4.3,1.5c1.8,0,3.6-0.7,4.9-2c2.7-2.7,2.7-7,0-9.7c-1.3-1.3-3-2-4.9-2c-1.8,0-3.6,0.7-4.9,2 c-1.3,1.3-2,3-2,4.9c0,1.6,0.5,3.1,1.5,4.3l-6.1,6.1C63,126.9,63,127.4,63.3,127.7z M70.9,112.5c1-1,2.4-1.6,3.8-1.6 c1.4,0,2.8,0.6,3.8,1.6c2.1,2.1,2.1,5.5,0,7.6c-1,1-2.4,1.6-3.8,1.6c-1.4,0-2.8-0.6-3.8-1.6c-1-1-1.6-2.4-1.6-3.8 C69.3,114.8,69.9,113.5,70.9,112.5z"></path><path fill-rule="evenodd" clip-rule="evenodd" fill="currentColor" d="M72.2,117.2H74v1.8c0,0.4,0.3,0.8,0.8,0.8c0.4,0,0.8-0.3,0.8-0.8 v-1.8h1.8c0.4,0,0.8-0.3,0.8-0.8c0-0.4-0.3-0.8-0.8-0.8h-1.8v-1.8c0-0.4-0.3-0.8-0.8-0.8c-0.4,0-0.8,0.3-0.8,0.8v1.8h-1.8 c-0.4,0-0.8,0.3-0.8,0.8C71.5,116.9,71.8,117.2,72.2,117.2z"></path><path fill-rule="evenodd" clip-rule="evenodd" fill="currentColor" d="M165.2,113.4c0.4-0.2,0.6-0.6,0.4-1c-0.2-0.4-0.6-0.6-1-0.4 c-1,0.4-2,1-2.7,1.8c-1.6,1.6-2.4,3.6-2.4,5.8c0,2.2,0.9,4.3,2.4,5.8c1.6,1.6,3.6,2.4,5.8,2.4c2.2,0,4.3-0.9,5.8-2.4 c3.2-3.2,3.2-8.4,0-11.6c-0.7-0.7-1.5-1.3-2.4-1.7c-0.4-0.2-0.8,0-1,0.4c-0.2,0.4,0,0.8,0.4,1c0.7,0.3,1.4,0.8,2,1.4 c2.6,2.6,2.6,6.9,0,9.5c-1.3,1.3-3,2-4.8,2c-1.8,0-3.5-0.7-4.8-2c-1.3-1.3-2-3-2-4.8c0-1.8,0.7-3.5,2-4.8 C163.6,114.3,164.4,113.8,165.2,113.4z"></path><path fill-rule="evenodd" clip-rule="evenodd" fill="currentColor" d="M168.8,115.3v-5.5c0-0.4-0.3-0.8-0.8-0.8c-0.4,0-0.8,0.3-0.8,0.8 v5.5c0,0.4,0.3,0.8,0.8,0.8C168.4,116,168.8,115.7,168.8,115.3z"></path><path fill-rule="evenodd" clip-rule="evenodd" fill="currentColor" d="M221.2,111.6v15.6c0,0.4,0.3,0.8,0.8,0.8c0.4,0,0.8-0.3,0.8-0.8 v-15.6c0-0.4-0.3-0.8-0.8-0.8C221.6,110.8,221.2,111.2,221.2,111.6z"></path><path fill-rule="evenodd" clip-rule="evenodd" fill="currentColor" d="M217.2,115.3v11.9c0,0.4,0.3,0.8,0.8,0.8c0.4,0,0.8-0.3,0.8-0.8 v-11.9c0-0.4-0.3-0.8-0.8-0.8C217.6,114.5,217.2,114.9,217.2,115.3z"></path><path fill-rule="evenodd" clip-rule="evenodd" fill="currentColor" d="M209.2,122.4v4.8c0,0.4,0.3,0.8,0.8,0.8c0.4,0,0.8-0.3,0.8-0.8 v-4.8c0-0.4-0.3-0.8-0.8-0.8C209.6,121.6,209.2,122,209.2,122.4z"></path><path fill-rule="evenodd" clip-rule="evenodd" fill="currentColor" d="M213.2,119v8.2c0,0.4,0.3,0.8,0.8,0.8c0.4,0,0.8-0.3,0.8-0.8V119 c0-0.4-0.3-0.8-0.8-0.8C213.6,118.3,213.2,118.6,213.2,119z"></path><path fill-rule="evenodd" clip-rule="evenodd" fill="currentColor" d="M262.8,123.2c2,0,3.6-1.6,3.6-3.6c0-2-1.6-3.6-3.6-3.6 c-2,0-3.6,1.6-3.6,3.6C259.2,121.6,260.8,123.2,262.8,123.2z M262.8,117.6c1.2,0,2.1,0.9,2.1,2.1c0,1.1-1,2.1-2.1,2.1 c-1.2,0-2.1-0.9-2.1-2.1C260.7,118.5,261.6,117.6,262.8,117.6z"></path><path fill-rule="evenodd" clip-rule="evenodd" fill="currentColor" d="M255.7,122.3l0.2,0.5c-1.1,2.4-1.1,2.6-0.7,3l1.4,1.4l0.2,0.2h0.3 c0.2,0,0.4,0,2.5-0.9l0.5,0.2c1,2.5,1.2,2.6,1.7,2.6h2c0.6,0,0.7-0.2,1.6-2.6l0.5-0.2c2.1,0.9,2.4,0.9,2.5,0.9l0.3,0l1.6-1.6 c0.4-0.4,0.4-0.6-0.7-3l0.2-0.5c2.5-1,2.7-1.1,2.7-1.7v-1.9c0-0.6-0.2-0.7-2.7-1.6l-0.2-0.5c1.1-2.4,1.1-2.6,0.7-3l-1.4-1.4 l-0.2-0.2h-0.3c-0.2,0-0.4,0-2.5,0.9l-0.5-0.2c-1-2.5-1.2-2.6-1.7-2.6h-2c-0.6,0-0.7,0.2-1.6,2.6l-0.5,0.2 c-2.1-0.9-2.4-0.9-2.5-0.9l-0.3,0l-1.6,1.6c-0.4,0.4-0.4,0.6,0.7,3l-0.2,0.5c-2.5,1-2.7,1.1-2.7,1.7v1.9 C253,121.2,253.2,121.4,255.7,122.3z M254.5,119.2c0.4-0.2,1.3-0.5,2-0.8l0.3-0.1l0.7-1.7l-0.1-0.3c-0.3-0.7-0.7-1.4-0.8-1.9 l0.8-0.8c0.5,0.2,1.3,0.5,2,0.8l0.3,0.1l1.7-0.7l0.1-0.3c0.3-0.7,0.6-1.5,0.8-1.9h1.1c0.2,0.4,0.6,1.2,0.8,1.9l0.1,0.3l1.7,0.7 l0.3-0.1c0.7-0.3,1.5-0.7,2-0.8l0.8,0.8c-0.2,0.5-0.5,1.3-0.8,1.9l-0.1,0.3l0.7,1.7l0.3,0.1c0.7,0.3,1.5,0.6,2,0.8v1.1 c-0.4,0.2-1.3,0.5-2,0.8l-0.3,0.1l-0.7,1.7l0.1,0.3c0.3,0.7,0.7,1.4,0.9,1.9l-0.8,0.8c-0.5-0.2-1.3-0.5-2-0.8l-0.3-0.1l-1.7,0.7 l-0.1,0.3c-0.3,0.7-0.6,1.5-0.8,1.9h-1.1c-0.2-0.4-0.6-1.2-0.8-1.9l-0.1-0.3l-1.7-0.7l-0.3,0.1c-0.7,0.3-1.5,0.7-2,0.8l-0.8-0.8 c0.2-0.5,0.5-1.3,0.8-1.9l0.1-0.3l-0.7-1.7l-0.3-0.1c-0.7-0.3-1.5-0.6-2-0.8V119.2z"></path><path fill-rule="evenodd" clip-rule="evenodd" fill="currentColor" d="M304.9 115.2L304.9 128.8 317.7 128.8 317.7 115.2 316.2 115.2 316.2 127.3 313.7 127.3 313.7 115.5 312.2 115.5 312.2 127.3 310.1 127.3 310.1 115.5 308.6 115.5 308.6 127.3 306.4 127.3 306.4 115.2z"></path><path fill-rule="evenodd" clip-rule="evenodd" fill="currentColor" d="M303.7 112H319.3V113.5H303.7z"></path><path fill-rule="evenodd" clip-rule="evenodd" fill="currentColor" d="M308.8 109.5H314.3V111H308.8z"></path><path fill-rule="evenodd" clip-rule="evenodd" fill="currentColor" d="M350.3 120.1L351.4 121.2 352.3 120.3 352.3 128 353.8 128 353.8 118.8 360 112.6 366 119 366 119 366 128 367.5 128 367.5 120.6 368.3 121.5 369.4 120.5 360 110.4z"></path><path fill-rule="evenodd" clip-rule="evenodd" fill="currentColor" d="M399.7,128.1h15.7c0.4,0,0.8-0.3,0.8-0.7v-10.6	c0-0.2-0.1-0.4-0.3-0.6l-2.9-2.5l-2.6-2.5c0,0-0.1-0.1-0.1-0.1c0,0-0.1-0.1-0.1-0.1c-0.1,0-0.2-0.1-0.3-0.1h-10.2	c-0.4,0-0.8,0.3-0.8,0.8v15.7C399,127.8,399.3,128.1,399.7,128.1z M413.4,116h-2.7v-2.5l1.3,1.3L413.4,116z M400.5,112.4h8.7v4.3	c0,0.4,0.3,0.8,0.8,0.8h4.7v9.1h-14.2V112.4z"></path><path fill-rule="evenodd" clip-rule="evenodd" fill="currentColor" d="M454.6,129.4c5.4,0,9.8-4.4,9.8-9.7s-4.4-9.8-9.8-9.8 c-5.4,0-9.8,4.4-9.8,9.8S449.2,129.4,454.6,129.4z M454.6,111.4c4.5,0,8.2,3.7,8.2,8.2c0,4.5-3.7,8.2-8.2,8.2 c-4.5,0-8.2-3.7-8.2-8.2C446.3,115.1,450,111.4,454.6,111.4z"></path><path fill-rule="evenodd" clip-rule="evenodd" fill="currentColor" d="M458.6,123.8c0.1,0.1,0.3,0.2,0.5,0.2c0.2,0,0.4-0.1,0.6-0.3 c0.3-0.3,0.2-0.8-0.1-1.1l-4.2-3.3v-5.1c0-0.4-0.3-0.8-0.8-0.8c-0.4,0-0.8,0.3-0.8,0.8v5.4c0,0.2,0.1,0.4,0.3,0.6L458.6,123.8z"></path><path fill-rule="evenodd" clip-rule="evenodd" fill="currentColor" d="M32.8,174.9c0.1,0,0.2,0,0.3-0.1c0.4-0.1,0.6-0.6,0.4-1L28.9,162 c-0.1-0.4-0.6-0.6-1-0.4c-0.4,0.1-0.6,0.6-0.4,1l4.6,11.9C32.2,174.7,32.5,174.9,32.8,174.9z"></path><path fill-rule="evenodd" clip-rule="evenodd" fill="currentColor" d="M14.5,174.8c0.1,0,0.2,0.1,0.3,0.1c0.3,0,0.6-0.2,0.7-0.5 l4.6-11.9c0.1-0.4,0-0.8-0.4-1c-0.4-0.1-0.8,0-1,0.4l-4.6,11.9C13.9,174.3,14.1,174.7,14.5,174.8z"></path><path fill-rule="evenodd" clip-rule="evenodd" fill="currentColor" d="M23.8,166.8c0.4,0,0.8-0.3,0.8-0.8v-4.2c0-0.4-0.3-0.8-0.8-0.8 c-0.4,0-0.8,0.3-0.8,0.8v4.2C23,166.5,23.4,166.8,23.8,166.8z"></path><path fill-rule="evenodd" clip-rule="evenodd" fill="currentColor" d="M23,174.1c0,0.4,0.3,0.8,0.8,0.8c0.4,0,0.8-0.3,0.8-0.8v-4.2 c0-0.4-0.3-0.8-0.8-0.8c-0.4,0-0.8,0.3-0.8,0.8V174.1z"></path><path fill-rule="evenodd" clip-rule="evenodd" fill="currentColor" d="M206.4,168.8c-0.4,0-0.8,0.3-0.8,0.8v5.7c0,0.4,0.3,0.8,0.8,0.8h18	c0.4,0,0.8-0.3,0.8-0.8v-5.7c0-0.4-0.3-0.8-0.8-0.8c-0.4,0-0.8,0.3-0.8,0.8v5h-16.5v-5C207.2,169.1,206.8,168.8,206.4,168.8z"></path><path fill-rule="evenodd" clip-rule="evenodd" fill="currentColor" d="M71.5,156.9c-0.4,0-0.8,0.3-0.8,0.8v10.9l-3.3-3.3 c-0.3-0.3-0.8-0.3-1.1,0c-0.3,0.3-0.3,0.8,0,1.1l4.5,4.5c0.1,0.1,0.3,0.2,0.5,0.2c0.2,0,0.4-0.1,0.5-0.2l4.7-4.7 c0.3-0.3,0.3-0.8,0-1.1c-0.3-0.3-0.8-0.3-1.1,0l-3.3,3.3v-10.7C72.3,157.3,71.9,156.9,71.5,156.9z"></path><path fill-rule="evenodd" clip-rule="evenodd" fill="currentColor" d="M64.2,170.3c-0.4,0-0.8,0.3-0.8,0.8v4.6c0,0.4,0.3,0.8,0.8,0.8 h14.5c0.4,0,0.8-0.3,0.8-0.8v-4.6c0-0.4-0.3-0.8-0.8-0.8c-0.4,0-0.8,0.3-0.8,0.8v3.9h-13v-3.9C64.9,170.6,64.6,170.3,64.2,170.3z"></path><path fill-rule="evenodd" clip-rule="evenodd" fill="currentColor" d="M359.6,175.1c-0.8,0-1.5-0.1-2.2-0.4l1.2-0.6 c0.4-0.2,0.5-0.6,0.3-1c-0.2-0.4-0.6-0.5-1-0.3l-2.5,1.3c-0.4,0.2-0.5,0.6-0.3,1l1.3,2.6c0.1,0.3,0.4,0.4,0.7,0.4 c0.1,0,0.2,0,0.3-0.1c0.4-0.2,0.5-0.6,0.3-1l-0.3-0.6c0.7,0.2,1.4,0.3,2.1,0.3c4.5,0,8.1-3.6,8.1-8.1c0-1-0.2-2.1-0.6-3 c-0.2-0.4-0.6-0.6-1-0.4c-0.4,0.2-0.6,0.6-0.4,1c0.3,0.8,0.5,1.6,0.5,2.5C366.2,172.2,363.2,175.1,359.6,175.1z"></path><path fill-rule="evenodd" clip-rule="evenodd" fill="currentColor" d="M351.5,168.5c0,1.1,0.2,2.2,0.7,3.3c0.1,0.3,0.4,0.4,0.7,0.4 c0.1,0,0.2,0,0.3-0.1c0.4-0.2,0.6-0.6,0.4-1c-0.4-0.8-0.6-1.7-0.6-2.7c0-3.6,3-6.6,6.6-6.6c0.5,0,0.9,0,1.4,0.1l-0.7,0.3 c-0.4,0.2-0.6,0.6-0.4,1c0.1,0.3,0.4,0.5,0.7,0.5c0.1,0,0.2,0,0.3-0.1l2.6-1c0.4-0.2,0.6-0.6,0.4-1l-1.1-2.7 c-0.2-0.4-0.6-0.6-1-0.4c-0.4,0.2-0.6,0.6-0.4,1l0.5,1.2c-0.7-0.2-1.5-0.3-2.2-0.3C355.1,160.4,351.5,164,351.5,168.5z"></path><path fill-rule="evenodd" clip-rule="evenodd" fill="currentColor" d="M311.6,177.3c4.8,0,8.7-3.9,8.7-8.7c0-1.1-0.2-2.2-0.6-3.3 c-0.2-0.4-0.6-0.6-1-0.4c-0.4,0.2-0.6,0.6-0.4,1c0.3,0.9,0.5,1.8,0.5,2.7c0,4-3.2,7.2-7.2,7.2c-4,0-7.2-3.2-7.2-7.2 s3.2-7.2,7.2-7.2c0.6,0,1.1,0.1,1.7,0.2l-1,0.4c-0.4,0.2-0.6,0.6-0.4,1c0.1,0.3,0.4,0.5,0.7,0.5c0.1,0,0.2,0,0.3-0.1l2.8-1.1 c0.4-0.2,0.6-0.6,0.4-1l-1.2-2.9c-0.2-0.4-0.6-0.6-1-0.4c-0.4,0.2-0.6,0.6-0.4,1l0.6,1.4c-0.8-0.2-1.7-0.4-2.5-0.4 c-4.8,0-8.7,3.9-8.7,8.7S306.7,177.3,311.6,177.3z"></path><path fill-rule="evenodd" clip-rule="evenodd" fill="currentColor" d="M167.6,157.9c-5.4,0-9.8,4.4-9.8,9.8c0,5.4,4.4,9.8,9.8,9.8 c5.4,0,9.8-4.4,9.8-9.8C177.3,162.3,172.9,157.9,167.6,157.9z M167.6,175.9c-4.5,0-8.2-3.7-8.2-8.2s3.7-8.2,8.2-8.2 c4.5,0,8.2,3.7,8.2,8.2S172.1,175.9,167.6,175.9z"></path><path fill-rule="evenodd" clip-rule="evenodd" fill="currentColor" d="M168.2,162.5c-0.3-0.3-0.8-0.3-1.1,0l-4.7,4.7 c-0.3,0.3-0.3,0.8,0,1.1c0.1,0.1,0.3,0.2,0.5,0.2c0.2,0,0.4-0.1,0.5-0.2l3.3-3.3v6.7c0,0.4,0.3,0.8,0.8,0.8c0.4,0,0.8-0.3,0.8-0.8 v-6.9l3.3,3.3c0.3,0.3,0.8,0.3,1.1,0c0.3-0.3,0.3-0.8,0-1.1L168.2,162.5z"></path><path fill-rule="evenodd" clip-rule="evenodd" fill="currentColor" d="M129.3,167.7c0-5.4-4.4-9.8-9.8-9.8c-5.4,0-9.8,4.4-9.8,9.8 c0,5.4,4.4,9.8,9.8,9.8C124.9,177.4,129.3,173,129.3,167.7z M119.6,175.9c-4.5,0-8.2-3.7-8.2-8.2s3.7-8.2,8.2-8.2 c4.5,0,8.2,3.7,8.2,8.2S124.1,175.9,119.6,175.9z"></path><path fill-rule="evenodd" clip-rule="evenodd" fill="currentColor" d="M123.6,167l-3.3,3.3v-6.7c0-0.4-0.3-0.8-0.8-0.8 c-0.4,0-0.8,0.3-0.8,0.8v6.9l-3.3-3.3c-0.3-0.3-0.8-0.3-1.1,0c-0.3,0.3-0.3,0.8,0,1.1l4.5,4.5c0.1,0.1,0.3,0.2,0.5,0.2 s0.4-0.1,0.5-0.2l4.7-4.7c0.3-0.3,0.3-0.8,0-1.1C124.4,166.7,123.9,166.7,123.6,167z"></path><path fill-rule="evenodd" clip-rule="evenodd" fill="currentColor" d="M30.3,253.2c0-5.4-4.4-9.8-9.8-9.8c-5.4,0-9.8,4.4-9.8,9.8 s4.4,9.8,9.8,9.8C25.9,263,30.3,258.6,30.3,253.2z M20.5,261.5c-4.5,0-8.2-3.7-8.2-8.3c0-4.5,3.7-8.2,8.2-8.2 c4.5,0,8.2,3.7,8.2,8.2C28.8,257.8,25,261.5,20.5,261.5z"></path><path fill-rule="evenodd" clip-rule="evenodd" fill="currentColor" d="M263.6,157.9c-5.4,0-9.8,4.4-9.8,9.8c0,5.4,4.4,9.8,9.8,9.8 c5.4,0,9.8-4.4,9.8-9.8C273.3,162.3,268.9,157.9,263.6,157.9z M263.6,175.9c-4.5,0-8.2-3.7-8.2-8.2s3.7-8.2,8.2-8.2 c4.5,0,8.2,3.7,8.2,8.2S268.1,175.9,263.6,175.9z"></path><path fill-rule="evenodd" clip-rule="evenodd" fill="currentColor" d="M262.5,164.2c-0.2-0.1-0.5-0.1-0.8,0c-0.2,0.1-0.4,0.4-0.4,0.7 l0.1,5.6c0,0.3,0.1,0.5,0.4,0.6c0.1,0.1,0.2,0.1,0.4,0.1c0.1,0,0.3,0,0.4-0.1l4.8-2.8c0.2-0.1,0.4-0.4,0.4-0.6 c0-0.3-0.1-0.5-0.4-0.6L262.5,164.2z M262.9,169.2l0-3l2.6,1.5L262.9,169.2z"></path><path fill-rule="evenodd" clip-rule="evenodd" fill="currentColor" d="M399.7,163.4h15.7c0.4,0,0.8-0.3,0.8-0.8c0-0.4-0.3-0.8-0.8-0.8 h-15.7c-0.4,0-0.8,0.3-0.8,0.8C399,163.1,399.3,163.4,399.7,163.4z"></path><path fill-rule="evenodd" clip-rule="evenodd" fill="currentColor" d="M399.7,167.6H415c0.4,0,0.8-0.3,0.8-0.8c0-0.4-0.3-0.8-0.8-0.8 h-15.3c-0.4,0-0.8,0.3-0.8,0.8C399,167.3,399.3,167.6,399.7,167.6z"></path><path fill-rule="evenodd" clip-rule="evenodd" fill="currentColor" d="M399.7,171.3H415c0.4,0,0.8-0.3,0.8-0.8c0-0.4-0.3-0.8-0.8-0.8 h-15.3c-0.4,0-0.8,0.3-0.8,0.8C399,170.9,399.3,171.3,399.7,171.3z"></path><path fill-rule="evenodd" clip-rule="evenodd" fill="currentColor" d="M399.7,175.2H415c0.4,0,0.8-0.3,0.8-0.8c0-0.4-0.3-0.8-0.8-0.8 h-15.3c-0.4,0-0.8,0.3-0.8,0.8C399,174.9,399.3,175.2,399.7,175.2z"></path><path fill-rule="evenodd" clip-rule="evenodd" fill="currentColor" d="M456.7,158.9h-2.3c-1.7,0-3,1.4-3,3.2v3.2h-0.3 c-1.2,0-1.9,0.6-1.9,1.8v8c0,1.2,0.7,1.9,1.9,1.9h8.5c1.2,0,2.4-0.7,2.4-1.9v-8c0-1.1-1-1.7-2.1-1.7V162 C459.8,160.3,458.4,158.9,456.7,158.9z M452.4,162c0-1.2,0.8-2.1,2-2.1h2.3c1.2,0,2.1,1,2.1,2.1v3.2h-6.4V162z M460.9,167v8 c0,0.6-0.7,0.8-1.3,0.8h-8.5c-0.6,0-0.8-0.2-0.8-0.8v-8c0-0.6,0.2-0.7,0.8-0.7h0.3h1.1h6.4h0.8c0.1,0,0.2,0,0.3,0 C460.4,166.3,460.9,166.5,460.9,167z"></path><path fill-rule="evenodd" clip-rule="evenodd" fill="currentColor" d="M455.6,168.7c-0.7,0-1.2,0.5-1.2,1.2c0,0.4,0.2,0.8,0.6,1l-0.2,2 h1.7l-0.2-2c0.4-0.2,0.6-0.6,0.6-1C456.8,169.3,456.2,168.7,455.6,168.7z"></path><path fill-rule="evenodd" clip-rule="evenodd" fill="currentColor" d="M29.8,211.5c0-0.3-0.2-0.5-0.4-0.6l-9.8-4.5	c-0.2-0.1-0.5-0.1-0.7,0.1c-0.2,0.1-0.3,0.4-0.3,0.6v10.2c0,0,0,0,0,0v7.8c0,0.4,0.3,0.8,0.8,0.8c0.4,0,0.8-0.3,0.8-0.8v-7.4	l9.4-5.5C29.7,212,29.8,211.7,29.8,211.5z M20,215.9v-7.7l7.4,3.4L20,215.9z"></path><path fill-rule="evenodd" clip-rule="evenodd" fill="currentColor" d="M62.6,215c-0.4,0-0.8,0.3-0.8,0.8v8.7c0,0.4,0.3,0.8,0.8,0.8H66	c0.4,0,0.8-0.3,0.8-0.8v-8.7c0-0.4-0.3-0.8-0.8-0.8h-1.9c0.3-3.8,3.5-6.8,7.4-6.8c3.9,0,7.1,3,7.4,6.8h-1.8c-0.4,0-0.8,0.3-0.8,0.8	v8.7c0,0.4,0.3,0.8,0.8,0.8h3.4c0.4,0,0.8-0.3,0.8-0.8v-8.7c0-0.4-0.3-0.8-0.8-0.8h-0.1c-0.3-4.6-4.2-8.3-8.9-8.3	C66.9,206.7,63,210.4,62.6,215L62.6,215z M79.9,223.7H78v-7.2h1.9V223.7z M65.3,223.7h-1.9v-7.2h1.9V223.7z"></path><path fill-rule="evenodd" clip-rule="evenodd" fill="currentColor" d="M205.5,218.6c0,0.4,0.3,0.8,0.8,0.8h4l4.9,2.6 c0.1,0.1,0.2,0.1,0.4,0.1c0.1,0,0.3,0,0.4-0.1c0.2-0.1,0.4-0.4,0.4-0.6v-10.8c0-0.3-0.1-0.5-0.4-0.6c-0.2-0.1-0.5-0.1-0.7,0 l-4.9,2.6h-4c-0.4,0-0.8,0.3-0.8,0.8V218.6z M207,213.9h3.5c0.1,0,0.2,0,0.4-0.1l3.9-2.1v8.3l-3.9-2.1c-0.1-0.1-0.2-0.1-0.4-0.1 H207V213.9z"></path><path fill-rule="evenodd" clip-rule="evenodd" fill="currentColor" d="M225,219v-7.1c0-0.4-0.3-0.8-0.8-0.8c-0.4,0-0.8,0.3-0.8,0.8v7.1 c0,0.4,0.3,0.8,0.8,0.8C224.7,219.7,225,219.4,225,219z"></path><path fill-rule="evenodd" clip-rule="evenodd" fill="currentColor" d="M221.9,218v-5.2c0-0.4-0.3-0.8-0.8-0.8c-0.4,0-0.8,0.3-0.8,0.8 v5.2c0,0.4,0.3,0.8,0.8,0.8C221.6,218.8,221.9,218.4,221.9,218z"></path><path fill-rule="evenodd" clip-rule="evenodd" fill="currentColor" d="M218.8,217.3v-3.7c0-0.4-0.3-0.8-0.8-0.8c-0.4,0-0.8,0.3-0.8,0.8 v3.7c0,0.4,0.3,0.8,0.8,0.8C218.5,218.1,218.8,217.7,218.8,217.3z"></path><path fill-rule="evenodd" clip-rule="evenodd" fill="currentColor" d="M120.2,209.6l-5,2.7h-4.2c-0.4,0-0.8,0.3-0.8,0.8v5.6 c0,0.4,0.3,0.8,0.8,0.8h4.2l5,2.7c0.1,0.1,0.2,0.1,0.4,0.1c0.1,0,0.3,0,0.4-0.1c0.2-0.1,0.4-0.4,0.4-0.6v-11.1 c0-0.3-0.1-0.5-0.4-0.6C120.7,209.5,120.5,209.5,120.2,209.6z M119.8,220.2l-4.1-2.2c-0.1-0.1-0.2-0.1-0.4-0.1h-3.6v-4.1h3.6 c0.1,0,0.2,0,0.4-0.1l4.1-2.2V220.2z"></path><path fill-rule="evenodd" clip-rule="evenodd" fill="currentColor" d="M129.6,213c-0.3-0.3-0.8-0.3-1.1,0l-1.4,1.4l-1.4-1.4 c-0.3-0.3-0.8-0.3-1.1,0c-0.3,0.3-0.3,0.8,0,1.1l1.4,1.4l-1.4,1.4c-0.3,0.3-0.3,0.8,0,1.1c0.1,0.1,0.3,0.2,0.5,0.2 c0.2,0,0.4-0.1,0.5-0.2l1.4-1.4l1.4,1.4c0.1,0.1,0.3,0.2,0.5,0.2c0.2,0,0.4-0.1,0.5-0.2c0.3-0.3,0.3-0.8,0-1.1l-1.4-1.4l1.4-1.4 C129.9,213.8,129.9,213.3,129.6,213z"></path><path fill-rule="evenodd" clip-rule="evenodd" fill="currentColor" d="M170.5,222.4c0.1,0.1,0.2,0.1,0.4,0.1c0.1,0,0.3,0,0.4-0.1 c0.2-0.1,0.4-0.4,0.4-0.6v-11.8c0-0.3-0.1-0.5-0.4-0.6c-0.2-0.1-0.5-0.1-0.7,0l-5.3,2.9h-4.4c-0.4,0-0.8,0.3-0.8,0.8v5.9 c0,0.4,0.3,0.8,0.8,0.8h4.4L170.5,222.4z M161.5,213.6h3.9c0.1,0,0.2,0,0.4-0.1l4.4-2.4v9.3l-4.4-2.4c-0.1-0.1-0.2-0.1-0.4-0.1 h-3.9V213.6z"></path><path fill-rule="evenodd" clip-rule="evenodd" fill="currentColor" d="M174.8,212.6c-0.4,0-0.8,0.3-0.8,0.8v4c0,0.4,0.3,0.8,0.8,0.8 c0.4,0,0.8-0.3,0.8-0.8v-4C175.5,213,175.2,212.6,174.8,212.6z"></path><path fill-rule="evenodd" clip-rule="evenodd" fill="currentColor" d="M254.3,223.4h4.4V219h-4.4V223.4z M255.3,220h2.4v2.4h-2.4V220z"></path><path fill-rule="evenodd" clip-rule="evenodd" fill="currentColor" d="M260.1,223.4h4.4V219h-4.4V223.4z M261.1,220h2.4v2.4h-2.4V220z"></path><path fill-rule="evenodd" clip-rule="evenodd" fill="currentColor" d="M270.3,223.4V219h-4.4v4.4H270.3z M266.9,220h2.4v2.4h-2.4V220z"></path><path fill-rule="evenodd" clip-rule="evenodd" fill="currentColor" d="M270.3,207.4h-10.2v10.2h10.2V207.4z M268.8,216.1h-7.2v-7.2h7.2 V216.1z"></path><path fill-rule="evenodd" clip-rule="evenodd" fill="currentColor" d="M263.8 211H266.7V213.9H263.8z"></path><path fill-rule="evenodd" clip-rule="evenodd" fill="currentColor" d="M258.7 207.4L255.6 207.4 254.3 207.4 254.3 208.8 254.3 217.6 255.6 217.6 255.6 213.9 258.7 213.9 258.7 212.8 255.6 212.8 255.6 208.8 258.7 208.8z"></path><path fill-rule="evenodd" clip-rule="evenodd" fill="currentColor" d="M256.8 215.5H258.7V217.4H256.8z"></path><path fill-rule="evenodd" clip-rule="evenodd" fill="currentColor" d="M256.8 209.8H258.7V211.70000000000002H256.8z"></path><g fill="currentColor"><path fill-rule="evenodd" clip-rule="evenodd" fill="currentColor" d="M310.3,209.4v13c0,0.7,0.6,1.2,1.2,1.2c0.7,0,1.2-0.6,1.2-1.2v-13 c0-0.7-0.6-1.2-1.2-1.2C310.9,208.2,310.3,208.7,310.3,209.4z"></path><path fill-rule="evenodd" clip-rule="evenodd" fill="currentColor" d="M319.3,222.8v-13.7c0-0.4-0.3-0.8-0.8-0.8c-0.4,0-0.8,0.3-0.8,0.8 v13.7c0,0.4,0.3,0.8,0.8,0.8C319,223.5,319.3,223.2,319.3,222.8z"></path><path fill-rule="evenodd" clip-rule="evenodd" fill="currentColor" d="M315.6,223.4c0.3,0,0.5-0.2,0.5-0.5v-14c0-0.3-0.2-0.5-0.5-0.5 c-0.3,0-0.5,0.2-0.5,0.5v14C315.1,223.2,315.3,223.4,315.6,223.4z"></path><path fill-rule="evenodd" clip-rule="evenodd" fill="currentColor" d="M306.8,209.1v13.7c0,0.4,0.3,0.8,0.8,0.8c0.4,0,0.8-0.3,0.8-0.8 v-13.7c0-0.4-0.3-0.8-0.8-0.8C307.2,208.4,306.8,208.7,306.8,209.1z"></path><path fill-rule="evenodd" clip-rule="evenodd" fill="currentColor" d="M303.8,209.1v13.7c0,0.4,0.3,0.8,0.8,0.8c0.4,0,0.8-0.3,0.8-0.8 v-13.7c0-0.4-0.3-0.8-0.8-0.8C304.2,208.4,303.8,208.7,303.8,209.1z"></path></g><g fill="currentColor"><path fill-rule="evenodd" clip-rule="evenodd" fill="currentColor" d="M407.7,226.4c0.1,0.1,0.3,0.2,0.5,0.2c0.2,0,0.4-0.1,0.5-0.2 l4.7-4.7c0.3-0.3,0.3-0.8,0-1.1l0,0c0.1,0,0.2-0.1,0.3-0.2l0.7-0.7c0.3-0.3,0.3-0.8,0-1.1l0,0c0.1,0,0.2-0.1,0.3-0.2l0.7-0.7 c0.3-0.3,0.3-0.8,0-1.1l-7.3-7.3c-0.2-0.2-0.4-0.2-0.6-0.2l-4.4,0.4c-0.4,0-0.7,0.4-0.7,0.8c0,0.4,0.4,0.7,0.8,0.7l4-0.4l6.5,6.5 l-0.2,0.2c-0.1,0.1-0.1,0.2-0.2,0.3l-6.4-6.4c-0.2-0.2-0.4-0.2-0.6-0.2l-4.4,0.4c-0.4,0-0.7,0.4-0.7,0.8c0,0.4,0.4,0.7,0.8,0.7 l4-0.4l6.5,6.5l-0.2,0.2c-0.1,0.1-0.1,0.2-0.2,0.3l-6.4-6.4c-0.2-0.2-0.4-0.2-0.6-0.2l-4.4,0.4c-0.4,0-0.6,0.3-0.7,0.7l-0.3,4.2 c0,0.2,0.1,0.4,0.2,0.6L407.7,226.4z M401.9,215l3.4-0.3l6.5,6.5l-3.6,3.6l-6.6-6.6L401.9,215z"></path><circle fill-rule="evenodd" clip-rule="evenodd" fill="currentColor" cx="404.1" cy="217.1" r="1"></circle></g><g fill="currentColor"><path fill-rule="evenodd" clip-rule="evenodd" fill="currentColor" d="M366.4,217.7l-7.3-7.3c-0.2-0.2-0.4-0.2-0.6-0.2l-4.4,0.4 c-0.4,0-0.6,0.3-0.7,0.7l-0.3,4.2c0,0.2,0.1,0.4,0.2,0.6l7.3,7.3c0.1,0.1,0.3,0.2,0.5,0.2c0.2,0,0.4-0.1,0.5-0.2l4.7-4.7 C366.7,218.5,366.7,218,366.4,217.7z M361.2,221.8l-6.6-6.6l0.2-3.3l3.4-0.3l6.5,6.5L361.2,221.8z"></path><circle fill-rule="evenodd" clip-rule="evenodd" fill="currentColor" cx="357.1" cy="214.1" r="1"></circle></g><g fill="currentColor"><path fill-rule="evenodd" clip-rule="evenodd" fill="currentColor" d="M447.8,208.7v15.7c0,0.4,0.3,0.8,0.8,0.8h15 c0.4,0,0.8-0.3,0.8-0.8v-15.7c0-0.4-0.3-0.8-0.8-0.8h-15C448.1,207.9,447.8,208.3,447.8,208.7z M460.1,223.6v-14.2h1v14.2H460.1z M462.8,223.6h-0.8v-14.2h0.8V223.6z M449.3,209.4h9.7v14.2h-9.7V209.4z"></path></g><path fill="currentColor" d="M24,253.4L24,253.4c-0.1,0.2-0.4,0.3-0.6,0.2l-6.3-3.6c-0.2-0.1-0.3-0.4-0.2-0.6l0,0	c0.1-0.2,0.4-0.3,0.6-0.2l6.3,3.6C24,252.9,24.1,253.2,24,253.4z"></path><path fill="currentColor" d="M24.1,253.1L24.1,253.1c0.1,0.2,0,0.5-0.2,0.6l-6.5,3.2c-0.2,0.1-0.5,0-0.6-0.2l0,0c-0.1-0.2,0-0.5,0.2-0.6	l6.5-3.2C23.8,252.8,24,252.9,24.1,253.1z"></path><g fill="currentColor"><path fill-rule="evenodd" clip-rule="evenodd" fill="currentColor" d="M80.6,254.2c0-5.4-4.4-9.8-9.8-9.8c-5.4,0-9.8,4.4-9.8,9.8 s4.4,9.8,9.8,9.8C76.2,263.9,80.6,259.6,80.6,254.2z M70.9,262.4c-4.5,0-8.2-3.7-8.2-8.2s3.7-8.2,8.2-8.2c4.5,0,8.2,3.7,8.2,8.2 S75.4,262.4,70.9,262.4z"></path></g><path fill="currentColor" d="M67.4,254.3L67.4,254.3c0.1,0.2,0.4,0.3,0.6,0.2l6.3-3.6c0.2-0.1,0.3-0.4,0.2-0.6l0,0	c-0.1-0.2-0.4-0.3-0.6-0.2l-6.3,3.6C67.3,253.9,67.2,254.1,67.4,254.3z"></path><path fill="currentColor" d="M67.2,254.1L67.2,254.1c-0.1,0.2,0,0.5,0.2,0.6l6.5,3.2c0.2,0.1,0.5,0,0.6-0.2l0,0c0.1-0.2,0-0.5-0.2-0.6	l-6.5-3.2C67.6,253.8,67.3,253.8,67.2,254.1z"></path><g fill="currentColor"><path fill-rule="evenodd" clip-rule="evenodd" fill="currentColor" d="M126,254.1c0-5.4-4.4-9.8-9.7-9.8c-5.4,0-9.8,4.4-9.8,9.8 c0,5.4,4.4,9.8,9.8,9.8C121.6,263.9,126,259.5,126,254.1z M116.2,262.4c-4.5,0-8.2-3.7-8.2-8.2s3.7-8.2,8.2-8.2 c4.5,0,8.2,3.7,8.2,8.2S120.8,262.4,116.2,262.4z"></path></g><g fill="currentColor"><path fill-rule="evenodd" clip-rule="evenodd" fill="currentColor" d="M177.3,253.9c0-5.4-4.4-9.8-9.8-9.8c-5.4,0-9.8,4.4-9.8,9.8 c0,5.4,4.4,9.8,9.8,9.8C172.9,263.7,177.3,259.3,177.3,253.9z M167.5,262.2c-4.5,0-8.2-3.7-8.2-8.2s3.7-8.2,8.2-8.2 c4.5,0,8.2,3.7,8.2,8.2S172.1,262.2,167.5,262.2z"></path></g><g fill="currentColor"><path fill-rule="evenodd" clip-rule="evenodd" fill="currentColor" d="M225,254.2c0-5.4-4.4-9.8-9.8-9.8c-5.4,0-9.8,4.4-9.8,9.8 s4.4,9.8,9.8,9.8C220.7,264,225,259.6,225,254.2z M215.3,262.5c-4.5,0-8.2-3.7-8.2-8.2s3.7-8.2,8.2-8.2c4.5,0,8.2,3.7,8.2,8.2 S219.8,262.5,215.3,262.5z"></path></g><path fill="currentColor" d="M116,257.4L116,257.4c-0.2-0.1-0.3-0.4-0.2-0.6l3.5-6.3c0.1-0.2,0.4-0.3,0.6-0.2h0c0.2,0.1,0.3,0.4,0.2,0.6	l-3.5,6.3C116.4,257.4,116.2,257.5,116,257.4z"></path><path fill="currentColor" d="M165,257.1L165,257.1c-0.2-0.1-0.2-0.4-0.1-0.6l4.5-5.7c0.1-0.2,0.4-0.2,0.6-0.1l0,0	c0.2,0.1,0.2,0.4,0.1,0.6l-4.5,5.7C165.5,257.2,165.2,257.3,165,257.1z"></path><path fill="currentColor" d="M211.2,253.9L211.2,253.9c0-0.2,0.2-0.4,0.4-0.4l7.2,0c0.2,0,0.4,0.2,0.4,0.4l0,0c0,0.2-0.2,0.4-0.4,0.4	l-7.2,0C211.4,254.3,211.2,254.2,211.2,253.9z"></path><path fill="currentColor" d="M211.2,252.4L211.2,252.4c0-0.2,0.2-0.4,0.4-0.4l7.2,0c0.2,0,0.4,0.2,0.4,0.4l0,0c0,0.2-0.2,0.4-0.4,0.4	l-7.2,0C211.4,252.8,211.2,252.7,211.2,252.4z"></path><path fill="currentColor" d="M211.2,255.4L211.2,255.4c0-0.2,0.2-0.4,0.4-0.4l7.2,0c0.2,0,0.4,0.2,0.4,0.4l0,0c0,0.2-0.2,0.4-0.4,0.4	l-7.2,0C211.4,255.8,211.2,255.7,211.2,255.4z"></path><path fill="currentColor" d="M116.3,257.5L116.3,257.5c-0.2,0.1-0.5,0-0.6-0.2l-3.3-6.4c-0.1-0.2,0-0.5,0.2-0.6l0,0	c0.2-0.1,0.5,0,0.6,0.2l3.3,6.4C116.5,257.2,116.5,257.4,116.3,257.5z"></path><path fill="currentColor" d="M170.3,257.1L170.3,257.1c-0.2,0.2-0.4,0.1-0.6,0l-5-5.3c-0.2-0.2-0.1-0.4,0-0.6l0,0c0.2-0.2,0.4-0.1,0.6,0	l5,5.3C170.5,256.6,170.5,256.9,170.3,257.1z"></path><g fill="currentColor"><path fill-rule="evenodd" clip-rule="evenodd" fill="currentColor" d="M270.9,260.6c3.5-4.1,3.1-10.2-1-13.8c-4.1-3.5-10.2-3.1-13.8,1 c-3.5,4.1-3.1,10.2,1,13.8C261.2,265.1,267.4,264.7,270.9,260.6z M258.1,260.4c-3.4-3-3.8-8.2-0.8-11.6c3-3.4,8.2-3.8,11.6-0.8 c3.4,3,3.8,8.2,0.8,11.6C266.8,263,261.5,263.4,258.1,260.4z"></path></g><path fill="currentColor" d="M259.5,254L259.5,254c0-0.2,0.1-0.4,0.4-0.5l7.1,0c0.2,0,0.4,0.1,0.5,0.4l0,0c0,0.2-0.1,0.4-0.4,0.5l-7.1,0	C259.8,254.4,259.6,254.2,259.5,254z"></path><path fill="currentColor" d="M263.4,258L263.4,258c-0.2,0-0.4-0.1-0.5-0.4l0-7.3c0-0.2,0.1-0.4,0.4-0.5l0,0c0.2,0,0.4,0.1,0.5,0.4l0,7.3	C263.8,257.7,263.7,257.9,263.4,258z"></path><g fill="currentColor"><path fill-rule="evenodd" clip-rule="evenodd" fill="currentColor" d="M318.9,262.5c3.5-4.1,3.1-10.2-1-13.8c-4.1-3.5-10.2-3.1-13.8,1 c-3.5,4.1-3.1,10.2,1,13.8C309.2,267,315.4,266.6,318.9,262.5z M306.2,262.4c-3.4-3-3.8-8.2-0.8-11.6c3-3.4,8.2-3.8,11.6-0.8 c3.4,3,3.8,8.2,0.8,11.6C314.8,265,309.6,265.3,306.2,262.4z"></path></g><g fill="currentColor"><path fill-rule="evenodd" clip-rule="evenodd" fill="currentColor" d="M365.4,262.5c3.5-4.1,3.1-10.2-1-13.8c-4.1-3.5-10.2-3.1-13.8,1 c-3.5,4.1-3.1,10.2,1,13.8C355.7,267,361.9,266.6,365.4,262.5z M352.7,262.4c-3.4-3-3.8-8.2-0.8-11.6s8.2-3.8,11.6-0.8 c3.4,3,3.8,8.2,0.8,11.6C361.3,265,356.1,265.3,352.7,262.4z"></path></g><g fill="currentColor"><path fill-rule="evenodd" clip-rule="evenodd" fill="currentColor" d="M415.2,262.5c3.5-4.1,3.1-10.2-1-13.8c-4.1-3.5-10.2-3.1-13.8,1 c-3.5,4.1-3.1,10.2,1,13.8C405.5,267,411.7,266.6,415.2,262.5z M402.5,262.4c-3.4-3-3.8-8.2-0.8-11.6s8.2-3.8,11.6-0.8 c3.4,3,3.8,8.2,0.8,11.6C411.1,265,405.9,265.3,402.5,262.4z"></path></g><g fill="currentColor"><path fill-rule="evenodd" clip-rule="evenodd" fill="currentColor" d="M461.8,263.6c3.5-4.1,3.1-10.2-1-13.8c-4.1-3.5-10.2-3.1-13.8,1 c-3.5,4.1-3.1,10.2,1,13.8C452.1,268.1,458.2,267.6,461.8,263.6z M449,263.4c-3.4-3-3.8-8.2-0.8-11.6s8.2-3.8,11.6-0.8 c3.4,3,3.8,8.2,0.8,11.6C457.6,266,452.4,266.4,449,263.4z"></path></g><path fill="currentColor" d="M307.6,255.7L307.6,255.7c0-0.2,0.1-0.4,0.4-0.5l7.1,0c0.2,0,0.4,0.1,0.5,0.4l0,0c0,0.2-0.1,0.4-0.4,0.5	l-7.1,0C307.8,256.1,307.6,256,307.6,255.7z"></path><path fill="currentColor" d="M407.7,250.2L407.7,250.2c0.3,0,0.5,0.1,0.6,0.3l0.1,6.8c0,0.2-0.2,0.4-0.5,0.5l0,0c-0.3,0-0.5-0.1-0.6-0.3	l-0.1-6.8C407.2,250.5,407.4,250.3,407.7,250.2z"></path><path fill-rule="evenodd" clip-rule="evenodd" fill="currentColor" d="M353.9,256.6h-0.1c-0.4,0-0.7-0.3-0.7-0.7l0,0	c0-0.4,0.3-0.7,0.7-0.7h0.1c0.4,0,0.7,0.3,0.7,0.7l0,0C354.6,256.3,354.3,256.6,353.9,256.6z"></path><path fill-rule="evenodd" clip-rule="evenodd" fill="currentColor" d="M358.2,256.6h-0.1c-0.4,0-0.7-0.3-0.7-0.7l0,0	c0-0.4,0.3-0.7,0.7-0.7h0.1c0.4,0,0.7,0.3,0.7,0.7l0,0C358.9,256.3,358.6,256.6,358.2,256.6z"></path><path fill-rule="evenodd" clip-rule="evenodd" fill="currentColor" d="M362.8,256.6h-0.1c-0.4,0-0.7-0.3-0.7-0.7l0,0	c0-0.4,0.3-0.7,0.7-0.7h0.1c0.4,0,0.7,0.3,0.7,0.7l0,0C363.5,256.3,363.2,256.6,362.8,256.6z"></path><path fill="currentColor" d="M408,260.4h-0.2c-0.3,0-0.6,0.3-0.6,0.6v0.2c0,0.3,0.3,0.6,0.6,0.6h0.2c0.3,0,0.6-0.3,0.6-0.6V261	C408.6,260.7,408.4,260.4,408,260.4z"></path></g></svg>